<svg width="207" height="203" viewBox="0 0 207 203" fill="none" xmlns="http://www.w3.org/2000/svg">
<path d="M76.75 22.2916H130.25C131.432 22.2916 132.566 22.7613 133.403 23.5974C134.239 24.4335 134.708 25.5675 134.708 26.75C134.708 27.9324 134.239 29.0664 133.403 29.9025C132.566 30.7386 131.432 31.2083 130.25 31.2083H76.75C75.5676 31.2083 74.4336 30.7386 73.5975 29.9025C72.7614 29.0664 72.2917 27.9324 72.2917 26.75C72.2917 25.5675 72.7614 24.4335 73.5975 23.5974C74.4336 22.7613 75.5676 22.2916 76.75 22.2916ZM142.814 8.91663C143.262 8.91663 143.625 9.27955 143.625 9.72723C143.625 14.2041 139.996 17.8333 135.519 17.8333H71.4811C67.0042 17.8333 63.375 14.2041 63.375 9.72723C63.375 9.27955 63.7379 8.91663 64.1856 8.91663H142.814ZM114.875 36.6666C114.875 36.1143 115.323 35.6666 115.875 35.6666H124.792C125.344 35.6666 125.792 36.1143 125.792 36.6666V94.0833C125.792 96.2924 124.001 98.0833 121.792 98.0833H118.875C116.666 98.0833 114.875 96.2924 114.875 94.0833V36.6666ZM81.2083 36.6666C81.2083 36.1143 81.656 35.6666 82.2083 35.6666H91.125C91.6773 35.6666 92.125 36.1143 92.125 36.6666V94.0833C92.125 96.2924 90.3341 98.0833 88.125 98.0833H85.2083C82.9992 98.0833 81.2083 96.2924 81.2083 94.0833V36.6666ZM98.0417 36.6666C98.0417 36.1143 98.4894 35.6666 99.0417 35.6666H107.958C108.511 35.6666 108.958 36.1143 108.958 36.6666V94.0833C108.958 96.2924 107.167 98.0833 104.958 98.0833H102.042C99.8325 98.0833 98.0417 96.2924 98.0417 94.0833V36.6666Z" fill="url(#paint0_linear_6_299)"/>
<path d="M17.05 162V124.15H23.6V162H17.05ZM32.9477 173.05C32.2143 173.05 31.4977 172.983 30.7977 172.85C30.0977 172.75 29.4643 172.567 28.8977 172.3V166.8C29.331 166.9 29.8477 167 30.4477 167.1C31.081 167.2 31.6643 167.25 32.1977 167.25C33.6977 167.25 34.781 166.9 35.4477 166.2C36.1477 165.5 36.7643 164.583 37.2977 163.45L39.0977 159.25L38.9977 164.75L27.1477 134.8H34.1977L42.4977 156.9H39.9977L48.2477 134.8H55.3477L43.4977 164.75C42.7977 166.517 41.9477 168.017 40.9477 169.25C39.9477 170.483 38.781 171.417 37.4477 172.05C36.1477 172.717 34.6477 173.05 32.9477 173.05ZM71.5563 162.6C68.8563 162.6 66.4229 161.983 64.2563 160.75C62.1229 159.483 60.4396 157.783 59.2063 155.65C57.9729 153.483 57.3563 151.05 57.3563 148.35C57.3563 145.65 57.9729 143.233 59.2063 141.1C60.4396 138.967 62.1229 137.283 64.2563 136.05C66.4229 134.817 68.8563 134.2 71.5563 134.2C73.4896 134.2 75.2896 134.55 76.9563 135.25C78.6229 135.917 80.0563 136.85 81.2563 138.05C82.4896 139.217 83.3729 140.617 83.9063 142.25L78.1563 144.75C77.6563 143.383 76.8063 142.283 75.6063 141.45C74.4396 140.617 73.0896 140.2 71.5563 140.2C70.1229 140.2 68.8396 140.55 67.7063 141.25C66.6063 141.95 65.7396 142.917 65.1063 144.15C64.4729 145.383 64.1563 146.8 64.1563 148.4C64.1563 150 64.4729 151.417 65.1063 152.65C65.7396 153.883 66.6063 154.85 67.7063 155.55C68.8396 156.25 70.1229 156.6 71.5563 156.6C73.1229 156.6 74.4896 156.183 75.6563 155.35C76.8229 154.517 77.6563 153.4 78.1563 152L83.9063 154.6C83.3729 156.133 82.5063 157.517 81.3063 158.75C80.1063 159.95 78.6729 160.9 77.0063 161.6C75.3396 162.267 73.5229 162.6 71.5563 162.6ZM101.776 162.6C98.9762 162.6 96.5262 161.967 94.4262 160.7C92.3262 159.433 90.6928 157.717 89.5262 155.55C88.3595 153.383 87.7762 150.983 87.7762 148.35C87.7762 145.617 88.3595 143.2 89.5262 141.1C90.7262 138.967 92.3428 137.283 94.3762 136.05C96.4428 134.817 98.7428 134.2 101.276 134.2C103.41 134.2 105.276 134.55 106.876 135.25C108.51 135.95 109.893 136.917 111.026 138.15C112.16 139.383 113.026 140.8 113.626 142.4C114.226 143.967 114.526 145.667 114.526 147.5C114.526 147.967 114.493 148.45 114.426 148.95C114.393 149.45 114.31 149.883 114.176 150.25H93.1762V145.25H110.476L107.376 147.6C107.676 146.067 107.593 144.7 107.126 143.5C106.693 142.3 105.96 141.35 104.926 140.65C103.926 139.95 102.71 139.6 101.276 139.6C99.9095 139.6 98.6928 139.95 97.6262 140.65C96.5595 141.317 95.7428 142.317 95.1762 143.65C94.6428 144.95 94.4428 146.533 94.5762 148.4C94.4428 150.067 94.6595 151.55 95.2262 152.85C95.8262 154.117 96.6928 155.1 97.8262 155.8C98.9928 156.5 100.326 156.85 101.826 156.85C103.326 156.85 104.593 156.533 105.626 155.9C106.693 155.267 107.526 154.417 108.126 153.35L113.426 155.95C112.893 157.25 112.06 158.4 110.926 159.4C109.793 160.4 108.443 161.183 106.876 161.75C105.343 162.317 103.643 162.6 101.776 162.6ZM129.191 162.6C127.091 162.6 125.258 162.133 123.691 161.2C122.158 160.267 120.975 158.967 120.141 157.3C119.341 155.633 118.941 153.683 118.941 151.45V134.8H125.491V150.9C125.491 152.033 125.708 153.033 126.141 153.9C126.608 154.733 127.258 155.4 128.091 155.9C128.958 156.367 129.925 156.6 130.991 156.6C132.058 156.6 133.008 156.367 133.841 155.9C134.675 155.4 135.325 154.717 135.791 153.85C136.258 152.983 136.491 151.95 136.491 150.75V134.8H143.041V162H136.841V156.65L137.391 157.6C136.758 159.267 135.708 160.517 134.241 161.35C132.808 162.183 131.125 162.6 129.191 162.6ZM149.13 162V134.8H155.28V141.1L154.58 140.05C155.08 138.083 156.08 136.617 157.58 135.65C159.08 134.683 160.847 134.2 162.88 134.2C165.113 134.2 167.08 134.783 168.78 135.95C170.48 137.117 171.58 138.65 172.08 140.55L170.23 140.7C171.063 138.533 172.313 136.917 173.98 135.85C175.647 134.75 177.563 134.2 179.73 134.2C181.663 134.2 183.38 134.633 184.88 135.5C186.413 136.367 187.613 137.583 188.48 139.15C189.347 140.683 189.78 142.467 189.78 144.5V162H183.23V146.05C183.23 144.85 183.013 143.817 182.58 142.95C182.147 142.083 181.547 141.417 180.78 140.95C180.013 140.45 179.08 140.2 177.98 140.2C176.947 140.2 176.03 140.45 175.23 140.95C174.43 141.417 173.813 142.083 173.38 142.95C172.947 143.817 172.73 144.85 172.73 146.05V162H166.18V146.05C166.18 144.85 165.963 143.817 165.53 142.95C165.097 142.083 164.48 141.417 163.68 140.95C162.913 140.45 161.997 140.2 160.93 140.2C159.897 140.2 158.98 140.45 158.18 140.95C157.38 141.417 156.763 142.083 156.33 142.95C155.897 143.817 155.68 144.85 155.68 146.05V162H149.13Z" fill="url(#paint1_linear_6_299)"/>
<path d="M1.22 198V182.86H3.84V198H1.22ZM11.4191 198.24C10.2991 198.24 9.31906 197.987 8.47906 197.48C7.63906 196.973 6.98573 196.287 6.51906 195.42C6.0524 194.553 5.81906 193.593 5.81906 192.54C5.81906 191.447 6.0524 190.48 6.51906 189.64C6.99906 188.787 7.64573 188.113 8.45906 187.62C9.28573 187.127 10.2057 186.88 11.2191 186.88C12.0724 186.88 12.8191 187.02 13.4591 187.3C14.1124 187.58 14.6657 187.967 15.1191 188.46C15.5724 188.953 15.9191 189.52 16.1591 190.16C16.3991 190.787 16.5191 191.467 16.5191 192.2C16.5191 192.387 16.5057 192.58 16.4791 192.78C16.4657 192.98 16.4324 193.153 16.3791 193.3H7.97906V191.3H14.8991L13.6591 192.24C13.7791 191.627 13.7457 191.08 13.5591 190.6C13.3857 190.12 13.0924 189.74 12.6791 189.46C12.2791 189.18 11.7924 189.04 11.2191 189.04C10.6724 189.04 10.1857 189.18 9.75906 189.46C9.3324 189.727 9.00573 190.127 8.77906 190.66C8.56573 191.18 8.48573 191.813 8.53906 192.56C8.48573 193.227 8.5724 193.82 8.79906 194.34C9.03906 194.847 9.38573 195.24 9.83906 195.52C10.3057 195.8 10.8391 195.94 11.4391 195.94C12.0391 195.94 12.5457 195.813 12.9591 195.56C13.3857 195.307 13.7191 194.967 13.9591 194.54L16.0791 195.58C15.8657 196.1 15.5324 196.56 15.0791 196.96C14.6257 197.36 14.0857 197.673 13.4591 197.9C12.8457 198.127 12.1657 198.24 11.4191 198.24ZM21.7661 198.24C21.0061 198.24 20.3461 198.113 19.7861 197.86C19.2261 197.607 18.7928 197.247 18.4861 196.78C18.1794 196.3 18.0261 195.747 18.0261 195.12C18.0261 194.52 18.1594 193.987 18.4261 193.52C18.6928 193.04 19.1061 192.64 19.6661 192.32C20.2261 192 20.9328 191.773 21.7861 191.64L25.3461 191.06V193.06L22.2861 193.58C21.7661 193.673 21.3794 193.84 21.1261 194.08C20.8728 194.32 20.7461 194.633 20.7461 195.02C20.7461 195.393 20.8861 195.693 21.1661 195.92C21.4594 196.133 21.8194 196.24 22.2461 196.24C22.7928 196.24 23.2728 196.127 23.6861 195.9C24.1128 195.66 24.4394 195.333 24.6661 194.92C24.9061 194.507 25.0261 194.053 25.0261 193.56V190.76C25.0261 190.293 24.8394 189.907 24.4661 189.6C24.1061 189.28 23.6261 189.12 23.0261 189.12C22.4661 189.12 21.9661 189.273 21.5261 189.58C21.0994 189.873 20.7861 190.267 20.5861 190.76L18.4461 189.72C18.6594 189.147 18.9928 188.653 19.4461 188.24C19.9128 187.813 20.4594 187.48 21.0861 187.24C21.7128 187 22.3928 186.88 23.1261 186.88C24.0194 186.88 24.8061 187.047 25.4861 187.38C26.1661 187.7 26.6928 188.153 27.0661 188.74C27.4528 189.313 27.6461 189.987 27.6461 190.76V198H25.1661V196.14L25.7261 196.1C25.4461 196.567 25.1128 196.96 24.7261 197.28C24.3394 197.587 23.8994 197.827 23.4061 198C22.9128 198.16 22.3661 198.24 21.7661 198.24ZM30.0677 198V187.12H32.5277V189.54L32.3277 189.18C32.581 188.367 32.9743 187.8 33.5077 187.48C34.0543 187.16 34.7077 187 35.4677 187H36.1077V189.32H35.1677C34.421 189.32 33.821 189.553 33.3677 190.02C32.9143 190.473 32.6877 191.113 32.6877 191.94V198H30.0677ZM37.5481 198V187.12H40.0081V189.26L39.8081 188.88C40.0615 188.227 40.4748 187.733 41.0481 187.4C41.6348 187.053 42.3148 186.88 43.0881 186.88C43.8881 186.88 44.5948 187.053 45.2081 187.4C45.8348 187.747 46.3215 188.233 46.6681 188.86C47.0148 189.473 47.1881 190.187 47.1881 191V198H44.5681V191.62C44.5681 191.14 44.4748 190.727 44.2881 190.38C44.1015 190.033 43.8415 189.767 43.5081 189.58C43.1881 189.38 42.8081 189.28 42.3681 189.28C41.9415 189.28 41.5615 189.38 41.2281 189.58C40.8948 189.767 40.6348 190.033 40.4481 190.38C40.2615 190.727 40.1681 191.14 40.1681 191.62V198H37.5481ZM56.2583 198.24C55.4983 198.24 54.8383 198.113 54.2783 197.86C53.7183 197.607 53.2849 197.247 52.9783 196.78C52.6716 196.3 52.5183 195.747 52.5183 195.12C52.5183 194.52 52.6516 193.987 52.9183 193.52C53.1849 193.04 53.5983 192.64 54.1583 192.32C54.7183 192 55.4249 191.773 56.2783 191.64L59.8383 191.06V193.06L56.7783 193.58C56.2583 193.673 55.8716 193.84 55.6183 194.08C55.3649 194.32 55.2383 194.633 55.2383 195.02C55.2383 195.393 55.3783 195.693 55.6583 195.92C55.9516 196.133 56.3116 196.24 56.7383 196.24C57.2849 196.24 57.7649 196.127 58.1783 195.9C58.6049 195.66 58.9316 195.333 59.1583 194.92C59.3983 194.507 59.5183 194.053 59.5183 193.56V190.76C59.5183 190.293 59.3316 189.907 58.9583 189.6C58.5983 189.28 58.1183 189.12 57.5183 189.12C56.9583 189.12 56.4583 189.273 56.0183 189.58C55.5916 189.873 55.2783 190.267 55.0783 190.76L52.9383 189.72C53.1516 189.147 53.4849 188.653 53.9383 188.24C54.4049 187.813 54.9516 187.48 55.5783 187.24C56.2049 187 56.8849 186.88 57.6183 186.88C58.5116 186.88 59.2983 187.047 59.9783 187.38C60.6583 187.7 61.1849 188.153 61.5583 188.74C61.9449 189.313 62.1383 189.987 62.1383 190.76V198H59.6583V196.14L60.2183 196.1C59.9383 196.567 59.6049 196.96 59.2183 197.28C58.8316 197.587 58.3916 197.827 57.8983 198C57.4049 198.16 56.8583 198.24 56.2583 198.24ZM64.5598 198V187.12H67.0198V189.26L66.8198 188.88C67.0732 188.227 67.4865 187.733 68.0598 187.4C68.6465 187.053 69.3265 186.88 70.0998 186.88C70.8998 186.88 71.6065 187.053 72.2198 187.4C72.8465 187.747 73.3332 188.233 73.6798 188.86C74.0265 189.473 74.1998 190.187 74.1998 191V198H71.5798V191.62C71.5798 191.14 71.4865 190.727 71.2998 190.38C71.1132 190.033 70.8532 189.767 70.5198 189.58C70.1998 189.38 69.8198 189.28 69.3798 189.28C68.9532 189.28 68.5732 189.38 68.2398 189.58C67.9065 189.767 67.6465 190.033 67.4598 190.38C67.2732 190.727 67.1798 191.14 67.1798 191.62V198H64.5598ZM77.54 202.42C77.2467 202.42 76.96 202.393 76.68 202.34C76.4 202.3 76.1467 202.227 75.92 202.12V199.92C76.0933 199.96 76.3 200 76.54 200.04C76.7933 200.08 77.0267 200.1 77.24 200.1C77.84 200.1 78.2733 199.96 78.54 199.68C78.82 199.4 79.0667 199.033 79.28 198.58L80 196.9L79.96 199.1L75.22 187.12H78.04L81.36 195.96H80.36L83.66 187.12H86.5L81.76 199.1C81.48 199.807 81.14 200.407 80.74 200.9C80.34 201.393 79.8733 201.767 79.34 202.02C78.82 202.287 78.22 202.42 77.54 202.42ZM92.8988 198.12C91.6721 198.12 90.7188 197.787 90.0388 197.12C89.3721 196.44 89.0388 195.487 89.0388 194.26V189.46H87.1588V187.12H87.3588C87.8921 187.12 88.3054 186.98 88.5988 186.7C88.8921 186.42 89.0388 186.013 89.0388 185.48V184.64H91.6588V187.12H94.1588V189.46H91.6588V194.12C91.6588 194.48 91.7188 194.787 91.8388 195.04C91.9721 195.293 92.1721 195.487 92.4388 195.62C92.7188 195.753 93.0721 195.82 93.4988 195.82C93.5921 195.82 93.6988 195.813 93.8188 195.8C93.9521 195.787 94.0788 195.773 94.1988 195.76V198C94.0121 198.027 93.7988 198.053 93.5588 198.08C93.3188 198.107 93.0988 198.12 92.8988 198.12ZM96.2005 198V182.86H98.8205V189.26L98.4605 188.88C98.7138 188.227 99.1271 187.733 99.7005 187.4C100.287 187.053 100.967 186.88 101.74 186.88C102.54 186.88 103.247 187.053 103.86 187.4C104.487 187.747 104.974 188.233 105.32 188.86C105.667 189.473 105.84 190.187 105.84 191V198H103.22V191.62C103.22 191.14 103.127 190.727 102.94 190.38C102.754 190.033 102.494 189.767 102.16 189.58C101.84 189.38 101.46 189.28 101.02 189.28C100.594 189.28 100.214 189.38 99.8805 189.58C99.5471 189.767 99.2871 190.033 99.1005 190.38C98.9138 190.727 98.8205 191.14 98.8205 191.62V198H96.2005ZM108.056 198V187.12H110.676V198H108.056ZM108.056 185.9V183.1H110.676V185.9H108.056ZM113.095 198V187.12H115.555V189.26L115.355 188.88C115.608 188.227 116.022 187.733 116.595 187.4C117.182 187.053 117.862 186.88 118.635 186.88C119.435 186.88 120.142 187.053 120.755 187.4C121.382 187.747 121.868 188.233 122.215 188.86C122.562 189.473 122.735 190.187 122.735 191V198H120.115V191.62C120.115 191.14 120.022 190.727 119.835 190.38C119.648 190.033 119.388 189.767 119.055 189.58C118.735 189.38 118.355 189.28 117.915 189.28C117.488 189.28 117.108 189.38 116.775 189.58C116.442 189.767 116.182 190.033 115.995 190.38C115.808 190.727 115.715 191.14 115.715 191.62V198H113.095ZM130.23 202.4C129.417 202.4 128.664 202.267 127.97 202C127.277 201.733 126.677 201.36 126.17 200.88C125.677 200.413 125.317 199.86 125.09 199.22L127.53 198.3C127.69 198.807 128.004 199.213 128.47 199.52C128.95 199.84 129.537 200 130.23 200C130.764 200 131.23 199.9 131.63 199.7C132.044 199.5 132.364 199.207 132.59 198.82C132.817 198.447 132.93 197.993 132.93 197.46V194.98L133.43 195.58C133.057 196.233 132.557 196.727 131.93 197.06C131.304 197.393 130.59 197.56 129.79 197.56C128.777 197.56 127.87 197.327 127.07 196.86C126.27 196.393 125.644 195.753 125.19 194.94C124.737 194.127 124.51 193.213 124.51 192.2C124.51 191.173 124.737 190.26 125.19 189.46C125.644 188.66 126.264 188.033 127.05 187.58C127.837 187.113 128.73 186.88 129.73 186.88C130.544 186.88 131.257 187.053 131.87 187.4C132.497 187.733 133.017 188.22 133.43 188.86L133.07 189.52V187.12H135.55V197.46C135.55 198.407 135.317 199.253 134.85 200C134.397 200.747 133.77 201.333 132.97 201.76C132.184 202.187 131.27 202.4 130.23 202.4ZM130.11 195.14C130.67 195.14 131.157 195.02 131.57 194.78C131.997 194.527 132.33 194.18 132.57 193.74C132.81 193.3 132.93 192.793 132.93 192.22C132.93 191.66 132.804 191.16 132.55 190.72C132.31 190.267 131.977 189.913 131.55 189.66C131.137 189.407 130.657 189.28 130.11 189.28C129.564 189.28 129.07 189.407 128.63 189.66C128.19 189.913 127.844 190.267 127.59 190.72C127.35 191.16 127.23 191.66 127.23 192.22C127.23 192.78 127.35 193.28 127.59 193.72C127.844 194.16 128.184 194.507 128.61 194.76C129.05 195.013 129.55 195.14 130.11 195.14ZM144.292 198L140.552 187.12H143.312L146.052 195.38L145.092 195.36L148.012 187.12H150.332L153.232 195.36L152.272 195.38L155.012 187.12H157.772L154.032 198H151.692L148.732 189.38H149.612L146.612 198H144.292ZM159.208 198V187.12H161.828V198H159.208ZM159.208 185.9V183.1H161.828V185.9H159.208ZM169.207 198.12C167.981 198.12 167.027 197.787 166.347 197.12C165.681 196.44 165.347 195.487 165.347 194.26V189.46H163.467V187.12H163.667C164.201 187.12 164.614 186.98 164.907 186.7C165.201 186.42 165.347 186.013 165.347 185.48V184.64H167.967V187.12H170.467V189.46H167.967V194.12C167.967 194.48 168.027 194.787 168.147 195.04C168.281 195.293 168.481 195.487 168.747 195.62C169.027 195.753 169.381 195.82 169.807 195.82C169.901 195.82 170.007 195.813 170.127 195.8C170.261 195.787 170.387 195.773 170.507 195.76V198C170.321 198.027 170.107 198.053 169.867 198.08C169.627 198.107 169.407 198.12 169.207 198.12ZM172.509 198V182.86H175.129V189.26L174.769 188.88C175.022 188.227 175.436 187.733 176.009 187.4C176.596 187.053 177.276 186.88 178.049 186.88C178.849 186.88 179.556 187.053 180.169 187.4C180.796 187.747 181.282 188.233 181.629 188.86C181.976 189.473 182.149 190.187 182.149 191V198H179.529V191.62C179.529 191.14 179.436 190.727 179.249 190.38C179.062 190.033 178.802 189.767 178.469 189.58C178.149 189.38 177.769 189.28 177.329 189.28C176.902 189.28 176.522 189.38 176.189 189.58C175.856 189.767 175.596 190.033 175.409 190.38C175.222 190.727 175.129 191.14 175.129 191.62V198H172.509ZM186.919 198L192.059 183.1H195.579L200.719 198H197.759L196.699 194.8H190.939L189.859 198H186.919ZM191.719 192.4H195.919L193.439 184.98H194.199L191.719 192.4ZM202.378 198V183.1H205.098V198H202.378Z" fill="url(#paint2_linear_6_299)"/>
<defs>
<linearGradient id="paint0_linear_6_299" x1="103.5" y1="98.0833" x2="103.5" y2="8.91662" gradientUnits="userSpaceOnUse">
<stop stop-color="#5041FF"/>
<stop offset="1" stop-color="#7E73FF"/>
</linearGradient>
<linearGradient id="paint1_linear_6_299" x1="103.5" y1="176" x2="103.5" y2="107" gradientUnits="userSpaceOnUse">
<stop stop-color="#5041FF"/>
<stop offset="1" stop-color="#7E73FF"/>
</linearGradient>
<linearGradient id="paint2_linear_6_299" x1="103.5" y1="203" x2="103.5" y2="176" gradientUnits="userSpaceOnUse">
<stop stop-color="#3422FF"/>
<stop offset="1" stop-color="#7E73FF"/>
</linearGradient>
</defs>
</svg>
