<svg width="133" height="134" viewBox="0 0 133 134" fill="none" xmlns="http://www.w3.org/2000/svg">
<path d="M39.75 22.2916H93.25C94.4324 22.2916 95.5664 22.7613 96.4025 23.5974C97.2386 24.4335 97.7083 25.5675 97.7083 26.75C97.7083 27.9324 97.2386 29.0664 96.4025 29.9025C95.5664 30.7386 94.4324 31.2083 93.25 31.2083H39.75C38.5676 31.2083 37.4336 30.7386 36.5975 29.9025C35.7614 29.0664 35.2917 27.9324 35.2917 26.75C35.2917 25.5675 35.7614 24.4335 36.5975 23.5974C37.4336 22.7613 38.5676 22.2916 39.75 22.2916ZM105.814 8.91663C106.262 8.91663 106.625 9.27955 106.625 9.72723C106.625 14.2041 102.996 17.8333 98.5189 17.8333H34.4811C30.0042 17.8333 26.375 14.2041 26.375 9.72723C26.375 9.27955 26.7379 8.91663 27.1856 8.91663H105.814ZM77.875 36.6666C77.875 36.1143 78.3227 35.6666 78.875 35.6666H87.7917C88.344 35.6666 88.7917 36.1143 88.7917 36.6666V94.0833C88.7917 96.2924 87.0008 98.0833 84.7917 98.0833H81.875C79.6659 98.0833 77.875 96.2924 77.875 94.0833V36.6666ZM44.2083 36.6666C44.2083 36.1143 44.656 35.6666 45.2083 35.6666H54.125C54.6773 35.6666 55.125 36.1143 55.125 36.6666V94.0833C55.125 96.2924 53.3341 98.0833 51.125 98.0833H48.2083C45.9992 98.0833 44.2083 96.2924 44.2083 94.0833V36.6666ZM61.0417 36.6666C61.0417 36.1143 61.4894 35.6666 62.0417 35.6666H70.9583C71.5106 35.6666 71.9583 36.1143 71.9583 36.6666V94.0833C71.9583 96.2924 70.1675 98.0833 67.9583 98.0833H65.0417C62.8325 98.0833 61.0417 96.2924 61.0417 94.0833V36.6666Z" fill="url(#paint0_linear_6_378)"/>
<path d="M6.5 133.4C5.68667 133.4 4.93333 133.267 4.24 133C3.54667 132.733 2.94667 132.36 2.44 131.88C1.94667 131.413 1.58667 130.86 1.36 130.22L3.8 129.3C3.96 129.807 4.27333 130.213 4.74 130.52C5.22 130.84 5.80667 131 6.5 131C7.03333 131 7.5 130.9 7.9 130.7C8.31333 130.5 8.63333 130.207 8.86 129.82C9.08667 129.447 9.2 128.993 9.2 128.46V125.98L9.7 126.58C9.32667 127.233 8.82667 127.727 8.2 128.06C7.57333 128.393 6.86 128.56 6.06 128.56C5.04667 128.56 4.14 128.327 3.34 127.86C2.54 127.393 1.91333 126.753 1.46 125.94C1.00667 125.127 0.78 124.213 0.78 123.2C0.78 122.173 1.00667 121.26 1.46 120.46C1.91333 119.66 2.53333 119.033 3.32 118.58C4.10667 118.113 5 117.88 6 117.88C6.81333 117.88 7.52667 118.053 8.14 118.4C8.76667 118.733 9.28667 119.22 9.7 119.86L9.34 120.52V118.12H11.82V128.46C11.82 129.407 11.5867 130.253 11.12 131C10.6667 131.747 10.04 132.333 9.24 132.76C8.45333 133.187 7.54 133.4 6.5 133.4ZM6.38 126.14C6.94 126.14 7.42667 126.02 7.84 125.78C8.26667 125.527 8.6 125.18 8.84 124.74C9.08 124.3 9.2 123.793 9.2 123.22C9.2 122.66 9.07333 122.16 8.82 121.72C8.58 121.267 8.24667 120.913 7.82 120.66C7.40667 120.407 6.92667 120.28 6.38 120.28C5.83333 120.28 5.34 120.407 4.9 120.66C4.46 120.913 4.11333 121.267 3.86 121.72C3.62 122.16 3.5 122.66 3.5 123.22C3.5 123.78 3.62 124.28 3.86 124.72C4.11333 125.16 4.45333 125.507 4.88 125.76C5.32 126.013 5.82 126.14 6.38 126.14ZM19.4269 129.24C18.3069 129.24 17.3269 128.987 16.4869 128.48C15.6469 127.973 14.9935 127.287 14.5269 126.42C14.0602 125.553 13.8269 124.593 13.8269 123.54C13.8269 122.447 14.0602 121.48 14.5269 120.64C15.0069 119.787 15.6535 119.113 16.4669 118.62C17.2935 118.127 18.2135 117.88 19.2269 117.88C20.0802 117.88 20.8269 118.02 21.4669 118.3C22.1202 118.58 22.6735 118.967 23.1269 119.46C23.5802 119.953 23.9269 120.52 24.1669 121.16C24.4069 121.787 24.5269 122.467 24.5269 123.2C24.5269 123.387 24.5135 123.58 24.4869 123.78C24.4735 123.98 24.4402 124.153 24.3869 124.3H15.9869V122.3H22.9069L21.6669 123.24C21.7869 122.627 21.7535 122.08 21.5669 121.6C21.3935 121.12 21.1002 120.74 20.6869 120.46C20.2869 120.18 19.8002 120.04 19.2269 120.04C18.6802 120.04 18.1935 120.18 17.7669 120.46C17.3402 120.727 17.0135 121.127 16.7869 121.66C16.5735 122.18 16.4935 122.813 16.5469 123.56C16.4935 124.227 16.5802 124.82 16.8069 125.34C17.0469 125.847 17.3935 126.24 17.8469 126.52C18.3135 126.8 18.8469 126.94 19.4469 126.94C20.0469 126.94 20.5535 126.813 20.9669 126.56C21.3935 126.307 21.7269 125.967 21.9669 125.54L24.0869 126.58C23.8735 127.1 23.5402 127.56 23.0869 127.96C22.6335 128.36 22.0935 128.673 21.4669 128.9C20.8535 129.127 20.1735 129.24 19.4269 129.24ZM26.513 129V118.12H28.973V120.26L28.773 119.88C29.0263 119.227 29.4396 118.733 30.013 118.4C30.5996 118.053 31.2796 117.88 32.053 117.88C32.853 117.88 33.5596 118.053 34.173 118.4C34.7996 118.747 35.2863 119.233 35.633 119.86C35.9796 120.473 36.153 121.187 36.153 122V129H33.533V122.62C33.533 122.14 33.4396 121.727 33.253 121.38C33.0663 121.033 32.8063 120.767 32.473 120.58C32.153 120.38 31.773 120.28 31.333 120.28C30.9063 120.28 30.5263 120.38 30.193 120.58C29.8596 120.767 29.5996 121.033 29.413 121.38C29.2263 121.727 29.133 122.14 29.133 122.62V129H26.513ZM43.5284 129.24C42.4084 129.24 41.4284 128.987 40.5884 128.48C39.7484 127.973 39.0951 127.287 38.6284 126.42C38.1618 125.553 37.9284 124.593 37.9284 123.54C37.9284 122.447 38.1618 121.48 38.6284 120.64C39.1084 119.787 39.7551 119.113 40.5684 118.62C41.3951 118.127 42.3151 117.88 43.3284 117.88C44.1818 117.88 44.9284 118.02 45.5684 118.3C46.2218 118.58 46.7751 118.967 47.2284 119.46C47.6818 119.953 48.0284 120.52 48.2684 121.16C48.5084 121.787 48.6284 122.467 48.6284 123.2C48.6284 123.387 48.6151 123.58 48.5884 123.78C48.5751 123.98 48.5418 124.153 48.4884 124.3H40.0884V122.3H47.0084L45.7684 123.24C45.8884 122.627 45.8551 122.08 45.6684 121.6C45.4951 121.12 45.2018 120.74 44.7884 120.46C44.3884 120.18 43.9018 120.04 43.3284 120.04C42.7818 120.04 42.2951 120.18 41.8684 120.46C41.4418 120.727 41.1151 121.127 40.8884 121.66C40.6751 122.18 40.5951 122.813 40.6484 123.56C40.5951 124.227 40.6818 124.82 40.9084 125.34C41.1484 125.847 41.4951 126.24 41.9484 126.52C42.4151 126.8 42.9484 126.94 43.5484 126.94C44.1484 126.94 44.6551 126.813 45.0684 126.56C45.4951 126.307 45.8284 125.967 46.0684 125.54L48.1884 126.58C47.9751 127.1 47.6418 127.56 47.1884 127.96C46.7351 128.36 46.1951 128.673 45.5684 128.9C44.9551 129.127 44.2751 129.24 43.5284 129.24ZM50.6145 129V118.12H53.0745V120.54L52.8745 120.18C53.1279 119.367 53.5212 118.8 54.0545 118.48C54.6012 118.16 55.2545 118 56.0145 118H56.6545V120.32H55.7145C54.9679 120.32 54.3679 120.553 53.9145 121.02C53.4612 121.473 53.2345 122.113 53.2345 122.94V129H50.6145ZM61.395 129.24C60.635 129.24 59.975 129.113 59.415 128.86C58.855 128.607 58.4217 128.247 58.115 127.78C57.8083 127.3 57.655 126.747 57.655 126.12C57.655 125.52 57.7883 124.987 58.055 124.52C58.3217 124.04 58.735 123.64 59.295 123.32C59.855 123 60.5617 122.773 61.415 122.64L64.975 122.06V124.06L61.915 124.58C61.395 124.673 61.0083 124.84 60.755 125.08C60.5017 125.32 60.375 125.633 60.375 126.02C60.375 126.393 60.515 126.693 60.795 126.92C61.0883 127.133 61.4483 127.24 61.875 127.24C62.4217 127.24 62.9017 127.127 63.315 126.9C63.7417 126.66 64.0683 126.333 64.295 125.92C64.535 125.507 64.655 125.053 64.655 124.56V121.76C64.655 121.293 64.4683 120.907 64.095 120.6C63.735 120.28 63.255 120.12 62.655 120.12C62.095 120.12 61.595 120.273 61.155 120.58C60.7283 120.873 60.415 121.267 60.215 121.76L58.075 120.72C58.2883 120.147 58.6217 119.653 59.075 119.24C59.5417 118.813 60.0883 118.48 60.715 118.24C61.3417 118 62.0217 117.88 62.755 117.88C63.6483 117.88 64.435 118.047 65.115 118.38C65.795 118.7 66.3217 119.153 66.695 119.74C67.0817 120.313 67.275 120.987 67.275 121.76V129H64.795V127.14L65.355 127.1C65.075 127.567 64.7417 127.96 64.355 128.28C63.9683 128.587 63.5283 128.827 63.035 129C62.5417 129.16 61.995 129.24 61.395 129.24ZM74.4613 129.12C73.2346 129.12 72.2813 128.787 71.6013 128.12C70.9346 127.44 70.6013 126.487 70.6013 125.26V120.46H68.7213V118.12H68.9213C69.4546 118.12 69.8679 117.98 70.1613 117.7C70.4546 117.42 70.6013 117.013 70.6013 116.48V115.64H73.2213V118.12H75.7213V120.46H73.2213V125.12C73.2213 125.48 73.2813 125.787 73.4013 126.04C73.5346 126.293 73.7346 126.487 74.0013 126.62C74.2813 126.753 74.6346 126.82 75.0613 126.82C75.1546 126.82 75.2613 126.813 75.3813 126.8C75.5146 126.787 75.6413 126.773 75.7613 126.76V129C75.5746 129.027 75.3613 129.053 75.1213 129.08C74.8813 129.107 74.6613 129.12 74.4613 129.12ZM77.763 129V118.12H80.383V129H77.763ZM77.763 116.9V114.1H80.383V116.9H77.763ZM82.802 129V118.12H85.262V120.26L85.062 119.88C85.3154 119.227 85.7287 118.733 86.302 118.4C86.8887 118.053 87.5687 117.88 88.342 117.88C89.142 117.88 89.8487 118.053 90.462 118.4C91.0887 118.747 91.5754 119.233 91.922 119.86C92.2687 120.473 92.442 121.187 92.442 122V129H89.822V122.62C89.822 122.14 89.7287 121.727 89.542 121.38C89.3554 121.033 89.0954 120.767 88.762 120.58C88.442 120.38 88.062 120.28 87.622 120.28C87.1954 120.28 86.8154 120.38 86.482 120.58C86.1487 120.767 85.8887 121.033 85.702 121.38C85.5154 121.727 85.422 122.14 85.422 122.62V129H82.802ZM99.9375 133.4C99.1242 133.4 98.3708 133.267 97.6775 133C96.9842 132.733 96.3842 132.36 95.8775 131.88C95.3842 131.413 95.0242 130.86 94.7975 130.22L97.2375 129.3C97.3975 129.807 97.7108 130.213 98.1775 130.52C98.6575 130.84 99.2442 131 99.9375 131C100.471 131 100.938 130.9 101.338 130.7C101.751 130.5 102.071 130.207 102.298 129.82C102.524 129.447 102.638 128.993 102.638 128.46V125.98L103.138 126.58C102.764 127.233 102.264 127.727 101.638 128.06C101.011 128.393 100.298 128.56 99.4975 128.56C98.4842 128.56 97.5775 128.327 96.7775 127.86C95.9775 127.393 95.3508 126.753 94.8975 125.94C94.4442 125.127 94.2175 124.213 94.2175 123.2C94.2175 122.173 94.4442 121.26 94.8975 120.46C95.3508 119.66 95.9708 119.033 96.7575 118.58C97.5442 118.113 98.4375 117.88 99.4375 117.88C100.251 117.88 100.964 118.053 101.578 118.4C102.204 118.733 102.724 119.22 103.138 119.86L102.778 120.52V118.12H105.258V128.46C105.258 129.407 105.024 130.253 104.558 131C104.104 131.747 103.478 132.333 102.678 132.76C101.891 133.187 100.978 133.4 99.9375 133.4ZM99.8175 126.14C100.378 126.14 100.864 126.02 101.278 125.78C101.704 125.527 102.038 125.18 102.278 124.74C102.518 124.3 102.638 123.793 102.638 123.22C102.638 122.66 102.511 122.16 102.258 121.72C102.018 121.267 101.684 120.913 101.258 120.66C100.844 120.407 100.364 120.28 99.8175 120.28C99.2708 120.28 98.7775 120.407 98.3375 120.66C97.8975 120.913 97.5508 121.267 97.2975 121.72C97.0575 122.16 96.9375 122.66 96.9375 123.22C96.9375 123.78 97.0575 124.28 97.2975 124.72C97.5508 125.16 97.8908 125.507 98.3175 125.76C98.7575 126.013 99.2575 126.14 99.8175 126.14ZM112.499 129V126.2H115.139V129H112.499ZM120.058 129V126.2H122.698V129H120.058ZM127.616 129V126.2H130.256V129H127.616Z" fill="url(#paint1_linear_6_378)"/>
<defs>
<linearGradient id="paint0_linear_6_378" x1="66.5" y1="98.0833" x2="66.5" y2="8.91662" gradientUnits="userSpaceOnUse">
<stop stop-color="#5041FF"/>
<stop offset="1" stop-color="#7E73FF"/>
</linearGradient>
<linearGradient id="paint1_linear_6_378" x1="66.5" y1="134" x2="66.5" y2="107" gradientUnits="userSpaceOnUse">
<stop stop-color="#3422FF"/>
<stop offset="1" stop-color="#7E73FF"/>
</linearGradient>
</defs>
</svg>
